<svg width="872" height="274" xmlns="http://www.w3.org/2000/svg" xmlns:xlink="http://www.w3.org/1999/xlink" overflow="hidden"><defs><clipPath id="clip0"><path d="M138 30 1010 30 1010 304 138 304Z" fill-rule="evenodd" clip-rule="evenodd"/></clipPath></defs><g clip-path="url(#clip0)" transform="translate(-138 -30)"><path d="M138 141.228C138 80.3506 187.351 31 248.228 31L898.772 31C959.649 31 1009 80.3506 1009 141.228L1009 192.772C1009 253.649 959.649 303 898.772 303L248.228 303C187.351 303 138 253.649 138 192.772Z" fill="#FFFFFF" fill-rule="evenodd"/><path d="M165 143.966C165 94.279 205.279 54 254.965 54L894.034 54C943.721 54 984 94.279 984 143.966L984 186.034C984 235.721 943.721 276 894.034 276L254.965 276C205.279 276 165 235.721 165 186.034Z" fill="#2E75B6" fill-rule="evenodd"/><rect x="254" y="95" width="23" height="135" fill="#FFFFFF"/><path d="M327.169 93.4504 346.409 112.744 275.783 183.171 256.543 163.877Z" fill="#FFFFFF" fill-rule="evenodd"/><rect x="396" y="98" width="24" height="27" fill="#FFFFFF"/><path d="M283.986 150.1 305.074 137.213 356.548 221.443 335.46 234.33Z" fill="#FFFFFF" fill-rule="evenodd"/><rect x="396" y="137" width="25" height="95" fill="#FFFFFF"/><rect x="464" y="137" width="28" height="95" fill="#FFFFFF"/><rect x="760" y="92" width="24" height="142" fill="#FFFFFF"/><rect x="734" y="129" width="77" height="22" fill="#FFFFFF"/><path d="M465 170C465 151.775 482.013 137 503 137 523.987 137 541 151.775 541 170 541 170.93 540.955 171.86 540.864 172.787L518.504 171.141C519.432 165.324 513.243 160.097 504.68 159.467 496.117 158.836 488.424 163.041 487.496 168.859 487.435 169.238 487.405 169.619 487.405 170Z" fill="#FFFFFF" fill-rule="evenodd"/><path d="M519 170C519 151.775 536.685 137 558.5 137 580.315 137 598 151.775 598 170 598 170.967 597.949 171.933 597.848 172.897L575.476 171.25C576.589 165.439 569.892 160.169 560.516 159.479 551.141 158.789 542.638 162.94 541.524 168.75 541.445 169.165 541.405 169.582 541.405 170Z" fill="#FFFFFF" fill-rule="evenodd"/><path d="M622 186C622 159.49 643.49 138 670 138 696.51 138 718 159.49 718 186 718 212.51 696.51 234 670 234 643.49 234 622 212.51 622 186Z" fill="#FFFFFF" fill-rule="evenodd"/><path d="M645 187C645 170.431 655.745 157 669 157 682.255 157 693 170.431 693 187 693 203.569 682.255 217 669 217 655.745 217 645 203.569 645 187Z" fill="#2E75B6" fill-rule="evenodd"/><rect x="519" y="154" width="25" height="77" fill="#FFFFFF"/><rect x="573" y="160" width="24" height="72" fill="#FFFFFF"/><path d="M818 186C818 159.49 839.49 138 866 138 892.51 138 914 159.49 914 186 914 212.51 892.51 234 866 234 839.49 234 818 212.51 818 186Z" fill="#FFFFFF" fill-rule="evenodd"/><path d="M841 187C841 170.431 851.745 157 865 157 878.255 157 889 170.431 889 187 889 203.569 878.255 217 865 217 851.745 217 841 203.569 841 187Z" fill="#2E75B6" fill-rule="evenodd"/></g></svg>